<!DOCTYPE svg PUBLIC "-//W3C//DTD SVG 1.1//EN" "http://www.w3.org/Graphics/SVG/1.1/DTD/svg11.dtd">
<!-- Uploaded to: SVG Repo, www.svgrepo.com, Transformed by: SVG Repo Mixer Tools -->
<svg fill="#10860e" height="800px" width="800px" version="1.1" id="Layer_1" xmlns="http://www.w3.org/2000/svg" xmlns:xlink="http://www.w3.org/1999/xlink" viewBox="0 0 512 512" xml:space="preserve">
<g id="SVGRepo_bgCarrier" stroke-width="0"/>
<g id="SVGRepo_tracerCarrier" stroke-linecap="round" stroke-linejoin="round"/>
<g id="SVGRepo_iconCarrier"> <g> <g> <g> <path d="M56.052,171.082c7.852,4.049,17.504,0.967,21.554-6.886C112.211,97.097,180.567,55.415,256,55.415 s143.789,41.682,178.394,108.78c4.054,7.86,13.706,10.933,21.554,6.886c7.854-4.05,10.937-13.7,6.886-21.554 C423.459,73.181,344.462,23.415,256,23.415c-88.213,0-167.345,49.545-206.834,126.112 C45.116,157.38,48.198,167.03,56.052,171.082z"/> <path d="M455.948,340.918c-7.853-4.051-17.504-0.967-21.554,6.886C399.789,414.903,331.433,456.585,256,456.585 s-143.789-41.681-178.394-108.78c-4.051-7.854-13.702-10.935-21.554-6.886c-7.854,4.05-10.937,13.7-6.886,21.554 C88.541,438.819,167.538,488.585,256,488.585c88.213,0,167.345-49.544,206.834-126.112 C466.884,354.62,463.802,344.97,455.948,340.918z"/> <path d="M158.047,256c0,54.012,43.941,97.953,97.953,97.953s97.953-43.941,97.953-97.953S310.012,158.047,256,158.047 S158.047,201.988,158.047,256z M321.953,256c0,36.366-29.586,65.953-65.953,65.953S190.047,292.366,190.047,256 s29.586-65.953,65.953-65.953S321.953,219.634,321.953,256z"/> <path d="M240,227.611V240h-12.389c-8.836,0-16,7.164-16,16c0,8.836,7.164,16,16,16H240v12.389c0,8.836,7.164,16,16,16 c8.836,0,16-7.164,16-16V272h12.389c8.836,0,16-7.164,16-16c0-8.836-7.164-16-16-16H272v-12.389c0-8.836-7.164-16-16-16 C247.164,211.611,240,218.774,240,227.611z"/> <path d="M496,204.878h-70.244c-8.836,0-16,7.164-16,16v70.244c0,8.836,7.164,16,16,16H496c8.836,0,16-7.164,16-16v-70.244 C512,212.042,504.836,204.878,496,204.878z M480,275.122h-38.244v-38.244H480V275.122z"/> <path d="M102.244,291.122v-70.244c0-8.836-7.164-16-16-16H16c-8.836,0-16,7.164-16,16v70.244c0,8.836,7.164,16,16,16h70.244 C95.082,307.122,102.244,299.958,102.244,291.122z M70.244,275.122H32v-38.244h38.244V275.122z"/> </g> </g> </g> </g>
</svg>