<?xml version="1.0"?>
<svg width="512" height="512" xmlns="http://www.w3.org/2000/svg" xmlns:svg="http://www.w3.org/2000/svg">
 <linearGradient id="a" x1="100%" x2="50%" y1="5.663%" y2="50%">
  <stop offset="0" stop-color="#007b55"/>
  <stop offset="1" stop-color="#00ab55"/>
 </linearGradient>
 <linearGradient id="b" x1="50%" x2="50%" y1="0%" y2="100%">
  <stop offset="0" stop-color="#5be584"/>
  <stop offset="1" stop-color="#00ab55"/>
 </linearGradient>
 <g class="layer">
  <title>Layer 1</title>
  <g fill="none" fill-rule="evenodd" id="svg_1">
   <path d="m106.81,211.11c44.29,22.89 46.3,23.93 46.4,23.98c0.01,0.01 0.64,0.33 44.79,23.15c-26.07,48.54 -42.69,77.26 -49.87,86.18c-10.76,13.37 -22.49,23.49 -36.93,29.33c-30.34,14.26 -68.07,14.93 -97.2,-2.7l92.81,-159.94z" fill="url(#a)" id="svg_2"/>
   <g fill="url(#b)" id="svg_3">
    <path d="m444.31,229.73c-46.27,-80.96 -94.1,-157.23 -149.04,-45.35c-7.52,14.39 -13,42.34 -25.27,42.34l0,-0.14c-12.27,0 -17.75,-27.96 -25.27,-42.34c-54.94,-111.88 -102.77,-35.61 -149.04,45.34c-3.48,6.11 -6.83,11.94 -9.69,17c106.04,-67.13 97.11,135.67 184,137.28l0,0.14c86.89,-1.61 77.96,-204.4 184,-137.28c-2.86,-5.06 -6.21,-10.89 -9.69,-16.99" id="svg_4"/>
   </g>
  </g>
 </g>
</svg>