<!DOCTYPE svg PUBLIC "-//W3C//DTD SVG 1.1//EN" "http://www.w3.org/Graphics/SVG/1.1/DTD/svg11.dtd">
<!-- Uploaded to: SVG Repo, www.svgrepo.com, Transformed by: SVG Repo Mixer Tools -->
<svg fill="#268d11" height="800px" width="800px" version="1.1" id="Layer_1" xmlns="http://www.w3.org/2000/svg" xmlns:xlink="http://www.w3.org/1999/xlink" viewBox="0 0 512 512" xml:space="preserve" stroke="#268d11">
<g id="SVGRepo_bgCarrier" stroke-width="0"/>
<g id="SVGRepo_tracerCarrier" stroke-linecap="round" stroke-linejoin="round"/>
<g id="SVGRepo_iconCarrier"> <g> <g> <g> <path d="M494.14,0H17.86C7.997,0,0,7.997,0,17.86V494.14C0,504.003,7.997,512,17.86,512H494.14c9.864,0,17.86-7.997,17.86-17.86 V17.86C512,7.997,504.003,0,494.14,0z M476.279,476.279H35.721V35.721h440.558V476.279z"/> <path d="M89.302,381.023h333.395c9.864,0,17.86-7.997,17.86-17.86V89.302c0-9.864-7.997-17.86-17.86-17.86H89.302 c-9.864,0-17.86,7.997-17.86,17.86v273.86C71.442,373.027,79.439,381.023,89.302,381.023z M107.163,107.163h297.674v238.14 H107.163V107.163z"/> <path d="M196.465,398.884c-16.414,0-29.767,13.354-29.767,29.767c0,16.414,13.354,29.767,29.767,29.767 c16.414,0,29.767-13.354,29.767-29.767C226.233,412.237,212.879,398.884,196.465,398.884z M196.465,434.605 c-3.283,0-5.953-2.671-5.953-5.953c0-3.283,2.671-5.953,5.953-5.953c3.283,0,5.953,2.671,5.953,5.953 C202.419,431.934,199.748,434.605,196.465,434.605z"/> <path d="M101.209,458.419c16.414,0,29.767-13.354,29.767-29.767c0-16.414-13.354-29.767-29.767-29.767 s-29.767,13.354-29.767,29.767C71.442,445.065,84.796,458.419,101.209,458.419z M101.209,422.698 c3.283,0,5.953,2.671,5.953,5.953c0,3.283-2.671,5.953-5.953,5.953s-5.953-2.671-5.953-5.953 C95.256,425.368,97.927,422.698,101.209,422.698z"/> <path d="M339.806,208.372h-22.804c-1.299-4.431-3.059-8.666-5.241-12.642l16.129-16.129c6.974-6.975,6.974-18.283,0-25.258 c-6.975-6.976-18.283-6.974-25.258,0l-16.128,16.129c-3.975-2.182-8.21-3.941-12.642-5.241v-22.804 c0-9.864-7.997-17.86-17.86-17.86s-17.86,7.997-17.86,17.86v22.804c-4.431,1.3-8.667,3.059-12.642,5.241l-16.128-16.129 c-6.974-6.975-18.283-6.975-25.258,0c-6.975,6.974-6.975,18.282,0,25.258l16.129,16.129c-2.183,3.975-3.941,8.211-5.241,12.642 h-22.804c-9.864,0-17.86,7.997-17.86,17.86c0,9.864,7.997,17.86,17.86,17.86h22.804c1.299,4.431,3.059,8.666,5.241,12.642 l-16.129,16.129c-6.974,6.975-6.974,18.283,0,25.258c6.974,6.975,18.282,6.976,25.258,0l16.128-16.129 c3.974,2.183,8.21,3.941,12.642,5.241v22.804c0,9.864,7.997,17.86,17.86,17.86s17.86-7.997,17.86-17.86v-22.804 c4.431-1.3,8.667-3.059,12.642-5.241l16.128,16.129c6.973,6.974,18.283,6.976,25.258,0c6.975-6.974,6.975-18.282,0-25.258 l-16.129-16.129c2.183-3.975,3.941-8.211,5.241-12.642h22.804c9.864,0,17.86-7.997,17.86-17.86 C357.667,216.369,349.67,208.372,339.806,208.372z M256,254.085c-15.358,0-27.853-12.495-27.853-27.853 S240.642,198.38,256,198.38s27.853,12.494,27.853,27.853S271.358,254.085,256,254.085z"/> </g> </g> </g> </g>
</svg>